HIERARCHY
ROOT Model_Hips
{
	OFFSET 0.000000 96.915077 0.000000
	CHANNELS 6 Xposition Yposition Zposition Xrotation Yrotation Zrotation
	JOINT Model_Spine
	{
		OFFSET 0.000000 11.137703 -1.289900
		CHANNELS 3 Xrotation Yrotation Zrotation
		JOINT Model_Spine1
		{
			OFFSET 0.000000 12.993942 -1.504922
			CHANNELS 3 Xrotation Yrotation Zrotation
			JOINT Model_Spine2
			{
				OFFSET 0.000000 14.850220 -1.719911
				CHANNELS 3 Xrotation Yrotation Zrotation
				JOINT Model_Neck
				{
					OFFSET 0.000000 16.706543 -1.934903
					CHANNELS 3 Xrotation Yrotation Zrotation
					JOINT Model_Head
					{
						OFFSET 0.000000 10.471298 2.002100
						CHANNELS 3 Xrotation Yrotation Zrotation
						JOINT Model_HeadTop_End
						{
							OFFSET 0.000000 20.842606 3.985100
							CHANNELS 3 Xrotation Yrotation Zrotation
							End Site
							{
								OFFSET 0.000000 21.220154 0.000000
							}
						}
					}
				}
				JOINT Model_LeftShoulder
				{
					OFFSET 7.008500 14.768600 -1.919946
					CHANNELS 3 Xrotation Yrotation Zrotation
					JOINT Model_LeftArm
					{
						OFFSET 14.126271 -3.718048 0.029937
						CHANNELS 3 Xrotation Yrotation Zrotation
						JOINT Model_LeftForeArm
						{
							OFFSET 28.282801 0.000000 0.000000
							CHANNELS 3 Xrotation Yrotation Zrotation
							JOINT Model_LeftHand
							{
								OFFSET 26.204689 0.000000 0.000000
								CHANNELS 3 Xrotation Yrotation Zrotation
								End Site
								{
									OFFSET 26.204704 0.000000 0.000000
								}
							}
						}
					}
				}
				JOINT Model_RightShoulder
				{
					OFFSET -7.008500 14.768555 -1.949840
					CHANNELS 3 Xrotation Yrotation Zrotation
					JOINT Model_RightArm
					{
						OFFSET -14.126281 -3.718018 -0.029932
						CHANNELS 3 Xrotation Yrotation Zrotation
						JOINT Model_RightForeArm
						{
							OFFSET -28.283798 0.000000 -0.000001
							CHANNELS 3 Xrotation Yrotation Zrotation
							JOINT Model_RightHand
							{
								OFFSET -26.204193 0.000000 -0.000001
								CHANNELS 3 Xrotation Yrotation Zrotation
								End Site
								{
									OFFSET -26.204208 0.000000 -0.000001
								}
							}
						}
					}
				}
			}
		}
	}
	JOINT Model_LeftUpLeg
	{
		OFFSET 8.327700 -6.193199 -0.402800
		CHANNELS 3 Xrotation Yrotation Zrotation
		JOINT Model_LeftLeg
		{
			OFFSET 0.735802 -42.108742 -0.610721
			CHANNELS 3 Xrotation Yrotation Zrotation
			JOINT Model_LeftFoot
			{
				OFFSET -0.735806 -36.833748 -0.172876
				CHANNELS 3 Xrotation Yrotation Zrotation
				JOINT Model_LeftToeBase
				{
					OFFSET -0.565857 -11.977769 16.297714
					CHANNELS 3 Xrotation Yrotation Zrotation
					JOINT Model_LeftToe_End
					{
						OFFSET -0.111712 -0.312793 7.857784
						CHANNELS 3 Xrotation Yrotation Zrotation
						End Site
						{
							OFFSET -0.111712 -0.312793 7.857784
						}
					}
				}
			}
		}
	}
	JOINT Model_RightUpLeg
	{
		OFFSET -8.327700 -6.193199 -0.516500
		CHANNELS 3 Xrotation Yrotation Zrotation
		JOINT Model_RightLeg
		{
			OFFSET -0.735785 -42.108738 -0.434061
			CHANNELS 3 Xrotation Yrotation Zrotation
			JOINT Model_RightFoot
			{
				OFFSET 0.735776 -36.833748 -0.021630
				CHANNELS 3 Xrotation Yrotation Zrotation
				JOINT Model_RightToeBase
				{
					OFFSET 0.565817 -11.977745 15.903093
					CHANNELS 3 Xrotation Yrotation Zrotation
					JOINT Model_RightToe_End
					{
						OFFSET 0.111702 -0.312791 7.811342
						CHANNELS 3 Xrotation Yrotation Zrotation
						End Site
						{
							OFFSET 0.111702 -0.312791 7.811342
						}
					}
				}
			}
		}
	}
}
MOTION
Frames: 14
Frame Time: 0.033333
-0.180995 95.911819 0.730175 1.018708 2.685136 -1.544073 0.192949 0.358674 0.271279 0.384979 0.692415 0.496923 0.384980 0.692417 0.496922 -0.000368 -0.152066 -0.402849 -0.000368 -0.152064 -0.402849 -0.000000 -0.000000 0.000000 0.546341 -14.779645 -16.719021 -6.085804 6.471306 -50.651392 18.149218 -31.939064 -5.078736 -0.000001 -0.000000 0.000000 1.417832 7.418189 17.752881 0.623265 -19.220125 55.031056 11.687466 24.821872 10.776468 -0.000001 -0.000000 -0.000000 -25.006651 5.989973 6.636596 65.154643 -1.016423 0.780052 -3.439893 0.473090 -1.302322 -11.409930 -1.753240 -0.604558 0.000002 -0.000002 0.000001 -9.844008 -8.677344 2.854030 20.714485 7.925671 -0.007962 -11.239923 0.604509 -4.541475 -4.894232 -0.667435 0.583832 0.000000 0.000000 0.000000 
-0.245181 96.045044 3.729204 0.804974 -0.234396 -1.245971 0.183675 0.547756 0.061077 0.366672 1.104975 0.125632 0.366672 1.104975 0.125633 0.086081 -0.089517 -0.380187 0.086089 -0.089518 -0.380188 -0.000000 0.000000 -0.000000 0.592392 -14.512345 -16.537387 -3.730649 9.080564 -51.161805 17.699428 -33.288221 -4.701828 -0.000001 -0.000002 0.000000 1.482195 8.086674 16.813673 1.093893 -17.517635 55.846137 11.409200 31.084427 9.897851 0.000002 0.000000 0.000000 -28.873768 5.038887 5.014342 59.036986 -1.979211 0.902544 -6.546954 0.707703 -3.048207 -4.751482 0.548913 1.000622 -0.000002 0.000001 -0.000000 -8.829466 -8.429430 2.031888 22.519275 11.127981 0.693124 -12.083773 0.640030 -5.357657 -5.977063 -0.431941 0.402242 0.000001 0.000000 0.000000 
-0.152638 95.920105 6.601349 0.735174 -3.576880 -0.929693 0.144858 0.803653 -0.147803 0.290345 1.663354 -0.242732 0.290345 1.663353 -0.242732 0.036025 0.007458 -0.431447 0.036025 0.007459 -0.431447 0.000000 -0.000000 -0.000000 0.634158 -14.193125 -16.396733 -1.629505 11.105008 -51.359232 18.317078 -35.015508 -3.900376 -0.000001 0.000000 0.000001 1.540987 8.346747 16.169428 2.679997 -16.405114 55.825339 12.414013 39.991608 8.154677 -0.000000 -0.000002 0.000001 -31.823234 2.989007 3.161095 50.213386 -5.085191 2.246999 -6.324533 0.821198 -4.132397 -4.530374 0.581294 -1.174062 -0.000000 0.000000 -0.000001 -9.110582 -8.086149 0.870612 26.112428 14.352939 1.368386 -13.382315 0.812770 -6.724465 -7.342393 -0.196629 0.234806 -0.000000 -0.000000 0.000000 
0.049161 95.291367 9.538032 0.334005 -7.951215 -0.699008 0.165774 1.167535 -0.344416 0.334087 2.458806 -0.563282 0.334087 2.458806 -0.563282 -0.123502 -0.293918 -0.510528 -0.123499 -0.293917 -0.510525 -0.000000 0.000000 0.000000 0.730066 -13.605707 -15.996489 -0.133865 12.671218 -51.569216 18.578278 -35.607122 -3.469472 -0.000001 -0.000001 0.000001 1.581771 8.455194 15.761568 4.427887 -15.679961 55.557250 13.360248 48.499165 6.411007 -0.000002 0.000000 0.000001 -34.040027 0.757005 2.551836 43.192159 -16.321024 3.837387 -3.249334 0.909436 -6.759679 -6.559847 -0.593480 -0.620100 -0.000000 0.000002 -0.000000 -10.397226 -7.062290 -0.292923 32.305876 17.737426 1.500076 -15.489392 1.139400 -8.349274 -8.575602 -0.319643 0.364601 0.000000 0.000000 -0.000000 
0.435034 93.988289 12.664178 0.127812 -14.088069 0.199144 0.116617 1.728190 -0.659043 0.240636 3.647436 -1.065875 0.240636 3.647433 -1.065874 -0.326380 -1.161193 -0.724169 -0.326383 -1.161193 -0.724166 0.000000 0.000000 0.000000 0.801680 -13.250822 -15.647688 0.990007 14.350123 -51.415345 17.596893 -34.679049 -3.602932 0.000001 -0.000004 0.000002 1.625942 8.688305 15.285040 5.182939 -14.676577 55.647686 12.473316 53.932820 6.550870 -0.000000 -0.000001 0.000001 -36.314722 -1.023509 2.463891 42.339554 -31.948285 5.258027 1.525421 0.754028 -10.942711 -4.999472 1.282388 -1.763064 0.000001 -0.000003 0.000000 -13.154608 -4.984390 -2.114583 41.040325 21.247909 0.833277 -18.586342 1.662908 -10.139344 -10.443874 -0.461692 -1.613976 0.000000 -0.000000 0.000000 
1.080759 92.327469 15.587759 0.667264 -22.285466 2.225858 -0.023556 2.531741 -1.082380 -0.026813 5.250538 -1.772997 -0.026811 5.250541 -1.772996 -0.577554 -2.321284 -1.219296 -0.577553 -2.321278 -1.219294 0.000000 -0.000001 -0.000000 0.691022 -14.083404 -16.067632 1.505792 15.807891 -50.879756 15.582399 -31.685459 -4.598974 -0.000000 0.000001 0.000000 1.664915 8.904210 14.870153 4.781677 -13.491911 55.772285 11.515812 56.331681 7.061591 -0.000000 0.000000 0.000000 -37.062707 -1.419861 1.970744 45.890228 -35.495469 6.327292 1.930264 0.798415 -10.645357 -6.589951 1.260630 5.047034 0.000000 0.000003 -0.000001 -17.294428 -2.084339 -4.978399 50.025023 24.819550 -0.067505 -21.344230 2.322980 -11.833398 -13.378045 -0.185064 -0.703717 -0.000000 0.000000 0.000000 
1.848376 90.833656 17.828209 1.398133 -31.026910 3.802714 -0.006743 2.868115 -1.362342 0.015885 5.870996 -2.238734 0.015887 5.870978 -2.238733 -0.964449 -3.640668 -1.646682 -0.964449 -3.640672 -1.646681 -0.000000 0.000001 -0.000000 0.454015 -15.204271 -17.109079 0.887399 16.093638 -51.081489 13.176640 -25.139179 -6.583332 -0.000001 0.000000 -0.000002 1.703143 9.258233 14.433313 3.559480 -12.508893 56.366010 11.675861 55.196736 6.843698 0.000001 -0.000001 -0.000001 -35.378174 0.401786 2.801733 49.213835 -29.684009 5.288791 -7.090458 1.190406 -4.045157 -10.542307 0.167344 5.500628 0.000000 -0.000003 -0.000000 -21.118965 0.614772 -7.137563 56.356086 27.692976 -0.416355 -22.949968 2.832639 -13.135244 -14.911865 0.192709 0.314907 0.000000 0.000000 0.000000 
2.572441 89.899406 19.399481 2.221718 -37.951331 4.284337 0.130202 1.927606 -1.509978 0.285647 3.951349 -2.559382 0.285647 3.951345 -2.559380 -1.373109 -4.810630 -1.559091 -1.373102 -4.810631 -1.559088 -0.000000 -0.000003 0.000000 0.239315 -15.607027 -18.225854 -0.865324 15.067380 -51.394691 11.064759 -16.673624 -8.943982 -0.000002 -0.000000 -0.000000 1.792417 9.917114 13.531713 1.734166 -11.537557 58.650541 11.562786 49.474410 7.205183 -0.000000 -0.000000 0.000001 -35.004276 2.642771 5.075841 51.569540 -25.871438 3.340400 -12.089596 0.798282 -0.893526 -9.317561 0.897222 3.304710 0.000000 0.000001 0.000000 -23.766483 1.617515 -7.592444 59.621923 27.562296 -0.421597 -24.716820 3.459180 -14.704561 -13.492618 0.321282 2.234020 -0.000000 0.000000 0.000000 
3.207044 89.744904 20.609118 3.581565 -44.232527 5.035535 0.129278 0.566099 -1.652829 0.269368 1.204362 -3.011957 0.269368 1.204355 -3.011959 -1.455270 -5.488466 -1.290702 -1.455267 -5.488480 -1.290703 -0.000000 -0.000001 -0.000000 0.023439 -16.647182 -18.967859 -2.781081 13.475761 -50.080422 10.465716 -10.572025 -10.428634 -0.000003 -0.000000 0.000000 1.911557 10.194611 12.508585 0.306940 -10.873313 61.665844 12.218226 42.148015 7.366904 -0.000000 -0.000001 -0.000001 -35.804043 4.833892 7.909673 53.384082 -24.850124 1.138714 -12.786625 0.575966 0.808745 -11.140200 0.096277 3.985523 0.000000 -0.000002 0.000000 -26.593994 0.878341 -7.425987 60.748023 23.608279 -0.666249 -25.116861 3.066414 -13.025253 -12.547374 -0.103694 3.398434 0.000000 -0.000000 0.000000 
3.699365 90.614670 21.794718 4.755315 -52.742390 5.926730 0.057824 -0.115678 -1.693909 0.112328 -0.190750 -3.268139 0.112329 -0.190745 -3.268139 -1.304098 -5.883282 -1.185152 -1.304088 -5.883322 -1.185158 -0.000000 0.000001 -0.000000 0.039322 -17.757223 -18.350077 -3.429995 12.146511 -48.562621 12.407026 -9.586398 -10.634910 -0.000001 -0.000000 0.000000 1.887971 9.513064 12.759642 0.967378 -11.240042 63.011459 14.849762 37.888938 7.223882 0.000005 0.000002 -0.000000 -33.913740 7.427885 10.252227 52.325796 -21.305464 -0.222651 -12.736378 0.605133 0.857253 -13.395265 -0.689761 4.300930 0.000000 0.000001 -0.000000 -28.655898 -1.366017 -7.162335 58.175644 17.445948 -0.759933 -23.412980 2.114972 -9.946611 -10.119209 -0.668692 4.185146 0.000000 0.000002 0.000000 
4.087183 92.121231 22.968170 5.391899 -63.295370 6.459917 0.061548 -0.375152 -1.550473 0.113218 -0.744200 -3.037311 0.113218 -0.744180 -3.037312 -1.198175 -5.954339 -1.140545 -1.198170 -5.954313 -1.140556 0.000000 -0.000000 0.000001 0.283712 -17.434365 -17.155388 -2.870772 11.754575 -48.060640 14.856177 -12.181315 -10.094880 -0.000001 -0.000000 0.000000 1.772848 8.732067 13.880449 3.701395 -13.383867 62.029374 17.247261 37.180879 7.397072 0.000001 0.000001 -0.000001 -29.633985 9.078372 10.671291 49.878378 -13.511604 0.298223 -12.568683 0.964594 -2.248178 -13.624877 0.068217 2.983175 0.000000 0.000002 0.000000 -29.244117 -4.174796 -7.014935 51.794315 11.562622 -0.249568 -18.719694 1.117438 -7.011342 -7.101527 -0.615947 0.570422 0.000000 -0.000000 0.000000 
4.301593 93.636978 24.027761 7.820325 -74.920352 8.798442 0.029812 -0.481619 -1.296506 0.048967 -0.990830 -2.500344 0.048968 -0.990806 -2.500344 -1.105935 -5.668666 -0.988190 -1.105935 -5.668639 -0.988189 -0.000000 -0.000000 -0.000000 0.463874 -16.556773 -16.486521 -2.434404 12.071197 -48.887492 15.481780 -15.113380 -9.312081 0.000000 0.000000 -0.000000 1.742396 8.660459 14.148580 5.860916 -16.115333 59.969710 17.279293 36.581247 8.245135 -0.000002 -0.000002 0.000002 -25.208136 9.837324 9.794240 47.244671 -3.383705 1.362420 -11.066318 1.383450 -6.761287 -13.591182 1.318103 0.518036 0.000000 -0.000001 0.000000 -29.827682 -5.668903 -6.436734 46.760862 5.709708 -0.390392 -16.210660 0.384948 -3.799284 -7.097584 -1.012549 0.900175 0.000000 0.000001 0.000000 
4.290673 94.910057 24.962805 29.074329 -85.717754 30.027100 -0.103244 -0.632152 -1.035221 -0.216983 -1.322658 -1.927328 -0.216982 -1.322655 -1.927328 -0.921617 -5.099193 -0.720569 -0.921616 -5.099219 -0.720573 0.000000 -0.000000 0.000000 0.516761 -16.250810 -16.295892 -2.620515 11.740698 -49.912519 15.817169 -17.934624 -8.583641 -0.000003 0.000000 -0.000000 1.753101 8.641926 14.030193 5.305814 -17.672752 57.284349 16.066603 34.625292 9.319664 -0.000001 0.000002 -0.000001 -21.545101 10.739427 9.070622 44.656911 5.271614 1.281065 -8.889939 1.509461 -9.879282 -15.158918 2.001086 -0.283413 0.000000 -0.000001 0.000000 -30.980078 -6.188027 -5.338719 43.607684 -2.042042 -2.102032 -13.171422 -0.063851 -1.143825 -7.257686 -2.055819 1.768981 0.000001 0.000001 0.000000 
4.141096 95.798828 25.733021 -24.186800 -95.626863 -23.238976 -0.253764 -1.171820 -0.795094 -0.519077 -2.424411 -1.373684 -0.519077 -2.424388 -1.373683 -0.686599 -4.376523 -0.388692 -0.686600 -4.376500 -0.388690 -0.000000 0.000001 -0.000000 0.554311 -16.306710 -16.057872 -3.486349 10.114765 -50.087611 16.972691 -20.818152 -8.109077 -0.000000 0.000000 -0.000000 1.723705 8.232617 14.395150 3.162715 -18.617726 54.442840 14.130056 32.902476 9.755071 0.000000 -0.000000 0.000000 -18.556010 11.603826 8.762329 42.527445 9.241309 0.466147 -7.565445 1.460244 -10.844689 -16.612777 2.204893 -0.558917 0.000000 0.000001 0.000000 -31.888695 -6.846140 -5.130327 40.360117 -9.623694 -4.081111 -9.627502 -0.130614 -0.381927 -6.775641 -2.347803 2.017202 -0.000000 0.000003 0.000001 
